<mxfile host="app.diagrams.net" modified="2021-10-01T00:23:58.382Z" agent="5.0 (X11; Linux x86_64) AppleWebKit/537.36 (KHTML, like Gecko) Chrome/93.0.4577.63 Safari/537.36" etag="9LtTWYK2OaqoJtRL9Nrh" version="15.4.0" type="github">
  <diagram id="6a731a19-8d31-9384-78a2-239565b7b9f0" name="Page-1">
    <mxGraphModel dx="1447" dy="827" grid="1" gridSize="10" guides="1" tooltips="1" connect="1" arrows="1" fold="1" page="1" pageScale="1" pageWidth="1169" pageHeight="827" background="none" math="0" shadow="0">
      <root>
        <mxCell id="0" />
        <mxCell id="1" parent="0" />
        <mxCell id="1351" value="&lt;font style=&quot;font-size: 24px&quot;&gt;Calidad de nivel de proceso&lt;/font&gt;" style="ellipse;whiteSpace=wrap;html=1;shadow=0;fontFamily=Helvetica;fontSize=20;fontColor=#FFFFFF;align=center;strokeWidth=3;fillColor=#F08705;strokeColor=none;gradientColor=none;" parent="1" vertex="1">
          <mxGeometry x="1060" y="330" width="250" height="250" as="geometry" />
        </mxCell>
        <mxCell id="1354" value="Calidad en uso" style="ellipse;whiteSpace=wrap;html=1;shadow=0;fontFamily=Helvetica;fontSize=20;fontColor=#FFFFFF;align=center;strokeWidth=3;fillColor=#736ca8;strokeColor=none;" parent="1" vertex="1">
          <mxGeometry x="1320" y="860" width="250" height="240" as="geometry" />
        </mxCell>
        <mxCell id="1356" value="Calidad de nivel de producto" style="ellipse;whiteSpace=wrap;html=1;shadow=0;fontFamily=Helvetica;fontSize=20;fontColor=#FFFFFF;align=center;strokeWidth=3;fillColor=#E85642;strokeColor=none;" parent="1" vertex="1">
          <mxGeometry x="800" y="850" width="283.92" height="280" as="geometry" />
        </mxCell>
        <mxCell id="1360" style="endArrow=none;strokeWidth=6;strokeColor=#f08705;html=1;" parent="1" source="1515" target="1351" edge="1">
          <mxGeometry relative="1" as="geometry" />
        </mxCell>
        <mxCell id="1364" style="endArrow=none;strokeWidth=6;strokeColor=#736ca8;html=1;" parent="1" source="1515" target="1354" edge="1">
          <mxGeometry relative="1" as="geometry" />
        </mxCell>
        <mxCell id="1366" value="" style="edgeStyle=none;endArrow=none;strokeWidth=6;strokeColor=#E85642;html=1;" parent="1" source="1515" target="1356" edge="1">
          <mxGeometry x="181" y="226.5" width="100" height="100" as="geometry">
            <mxPoint x="181" y="326.5" as="sourcePoint" />
            <mxPoint x="281" y="226.5" as="targetPoint" />
          </mxGeometry>
        </mxCell>
        <mxCell id="1392" value="&lt;font style=&quot;font-size: 24px&quot;&gt;Mantis&lt;/font&gt;" style="rounded=1;fillColor=#f5af58;strokeColor=none;strokeWidth=3;shadow=0;html=1;fontColor=#FFFFFF;" parent="1" vertex="1">
          <mxGeometry x="1065" y="80" width="240" height="120" as="geometry" />
        </mxCell>
        <mxCell id="1404" value="" style="edgeStyle=none;endArrow=none;strokeWidth=3;strokeColor=#F5AF58;html=1;startArrow=none;" parent="1" source="SO4Mofo1TY-jnxtRUuMt-1548" target="1392" edge="1">
          <mxGeometry x="3.5" y="21.5" width="100" height="100" as="geometry">
            <mxPoint x="3.5" y="121.5" as="sourcePoint" />
            <mxPoint x="103.5" y="21.5" as="targetPoint" />
          </mxGeometry>
        </mxCell>
        <mxCell id="1461" value="&lt;font style=&quot;font-size: 24px&quot;&gt;Calidad en uso,&lt;br&gt;Eficacia, productividad,&amp;nbsp; &lt;br&gt;seguridad,&amp;nbsp; y satisfaccion.&lt;br&gt;segun ISO/IEC 9126&lt;br&gt;&lt;/font&gt;" style="rounded=1;fillColor=#a29dc5;strokeColor=none;strokeWidth=3;shadow=0;html=1;fontColor=#FFFFFF;" parent="1" vertex="1">
          <mxGeometry x="1920" y="1290" width="289" height="141.5" as="geometry" />
        </mxCell>
        <mxCell id="1464" value="" style="edgeStyle=none;endArrow=none;strokeWidth=3;strokeColor=#A29DC5;html=1;startArrow=none;" parent="1" source="SO4Mofo1TY-jnxtRUuMt-1543" target="1461" edge="1">
          <mxGeometry x="251" y="-103.5" width="100" height="100" as="geometry">
            <mxPoint x="251" y="-3.5" as="sourcePoint" />
            <mxPoint x="351" y="-103.5" as="targetPoint" />
          </mxGeometry>
        </mxCell>
        <mxCell id="1491" value="&lt;font style=&quot;font-size: 24px&quot;&gt;Etapas &lt;br&gt;iniciales en el &lt;br&gt;proceso &lt;br&gt;de desarrolo&lt;/font&gt;" style="rounded=1;fillColor=#f08e81;strokeColor=none;strokeWidth=3;shadow=0;html=1;fontColor=#FFFFFF;align=center;" parent="1" vertex="1">
          <mxGeometry x="300" y="1270" width="236.5" height="130" as="geometry" />
        </mxCell>
        <mxCell id="1504" value="" style="edgeStyle=none;endArrow=none;strokeWidth=3;strokeColor=#F08E81;html=1;startArrow=none;" parent="1" source="SO4Mofo1TY-jnxtRUuMt-1545" target="1491" edge="1">
          <mxGeometry x="188.5" y="51.5" width="100" height="100" as="geometry">
            <mxPoint x="188.5" y="151.5" as="sourcePoint" />
            <mxPoint x="288.5" y="51.5" as="targetPoint" />
          </mxGeometry>
        </mxCell>
        <mxCell id="1515" value="Calidad de software" style="ellipse;whiteSpace=wrap;html=1;shadow=0;fontFamily=Helvetica;fontSize=30;fontColor=#2F5B7C;align=center;strokeColor=#2F5B7C;strokeWidth=6;fillColor=#FFFFFF;fontStyle=1;gradientColor=none;" parent="1" vertex="1">
          <mxGeometry x="1050" y="642.5" width="270" height="270" as="geometry" />
        </mxCell>
        <mxCell id="SO4Mofo1TY-jnxtRUuMt-1543" value="&lt;font style=&quot;font-size: 18px&quot;&gt;Cumplimiento en las caracteristicas&lt;br&gt;&amp;nbsp;de calidad de un producto de software&lt;/font&gt;" style="text;strokeColor=none;fillColor=none;html=1;fontSize=24;fontStyle=1;verticalAlign=middle;align=center;" vertex="1" parent="1">
          <mxGeometry x="1760" y="1190" width="100" height="40" as="geometry" />
        </mxCell>
        <mxCell id="SO4Mofo1TY-jnxtRUuMt-1544" value="" style="edgeStyle=none;endArrow=none;strokeWidth=3;strokeColor=#A29DC5;html=1;" edge="1" parent="1" source="1354" target="SO4Mofo1TY-jnxtRUuMt-1543">
          <mxGeometry x="251" y="-103.5" width="100" height="100" as="geometry">
            <mxPoint x="1550.1402798202753" y="1044.901407296466" as="sourcePoint" />
            <mxPoint x="1850.689789555729" y="1230" as="targetPoint" />
          </mxGeometry>
        </mxCell>
        <mxCell id="SO4Mofo1TY-jnxtRUuMt-1545" value="&lt;font style=&quot;font-size: 18px&quot;&gt;Cumplimiento de los requisitos en &lt;br&gt;las etapas inciales del proceso de desarrollo&lt;br&gt;&lt;/font&gt;" style="text;strokeColor=none;fillColor=none;html=1;fontSize=24;fontStyle=1;verticalAlign=middle;align=center;" vertex="1" parent="1">
          <mxGeometry x="640" y="1140" width="100" height="40" as="geometry" />
        </mxCell>
        <mxCell id="SO4Mofo1TY-jnxtRUuMt-1547" value="" style="edgeStyle=none;endArrow=none;strokeWidth=3;strokeColor=#F08E81;html=1;" edge="1" parent="1" source="1356" target="SO4Mofo1TY-jnxtRUuMt-1545">
          <mxGeometry x="188.5" y="51.5" width="100" height="100" as="geometry">
            <mxPoint x="823.9173995058545" y="1067.7692426784954" as="sourcePoint" />
            <mxPoint x="516.9199999999998" y="1270" as="targetPoint" />
          </mxGeometry>
        </mxCell>
        <mxCell id="SO4Mofo1TY-jnxtRUuMt-1548" value="&lt;font style=&quot;font-size: 18px&quot;&gt;Control&amp;nbsp; y sguimiento de los factores de &lt;br&gt;calidad en el proceso de desarrollo de software&amp;nbsp;&lt;br&gt;&lt;/font&gt;" style="text;strokeColor=none;fillColor=none;html=1;fontSize=24;fontStyle=1;verticalAlign=middle;align=center;" vertex="1" parent="1">
          <mxGeometry x="1135" y="250" width="100" height="40" as="geometry" />
        </mxCell>
        <mxCell id="SO4Mofo1TY-jnxtRUuMt-1549" value="" style="edgeStyle=none;endArrow=none;strokeWidth=3;strokeColor=#F5AF58;html=1;" edge="1" parent="1" source="1351" target="SO4Mofo1TY-jnxtRUuMt-1548">
          <mxGeometry x="3.5" y="21.5" width="100" height="100" as="geometry">
            <mxPoint x="1185" y="330" as="sourcePoint" />
            <mxPoint x="1185" y="200" as="targetPoint" />
          </mxGeometry>
        </mxCell>
      </root>
    </mxGraphModel>
  </diagram>
</mxfile>
